<svg width="16" height="17" viewBox="0 0 16 17" fill="none" xmlns="http://www.w3.org/2000/svg">
<path d="M10 15.6667H6.00004C2.38004 15.6667 0.833374 14.12 0.833374 10.5V6.50004C0.833374 2.88004 2.38004 1.33337 6.00004 1.33337H10C13.62 1.33337 15.1667 2.88004 15.1667 6.50004V10.5C15.1667 14.12 13.62 15.6667 10 15.6667ZM6.00004 2.33337C2.92671 2.33337 1.83337 3.42671 1.83337 6.50004V10.5C1.83337 13.5734 2.92671 14.6667 6.00004 14.6667H10C13.0734 14.6667 14.1667 13.5734 14.1667 10.5V6.50004C14.1667 3.42671 13.0734 2.33337 10 2.33337H6.00004Z" fill="#4B5563"/>
<path d="M10.5 7H5.5C5.22667 7 5 6.77333 5 6.5C5 6.22667 5.22667 6 5.5 6H10.5C10.7733 6 11 6.22667 11 6.5C11 6.77333 10.7733 7 10.5 7Z" fill="#4B5563"/>
<path d="M10.5 11H5.5C5.22667 11 5 10.7733 5 10.5C5 10.2267 5.22667 10 5.5 10H10.5C10.7733 10 11 10.2267 11 10.5C11 10.7733 10.7733 11 10.5 11Z" fill="#292D32"/>
</svg>
