<svg width="16" height="17" viewBox="0 0 16 17" fill="none" xmlns="http://www.w3.org/2000/svg">
<path d="M7.99995 11.3866C6.40661 11.3866 5.11328 10.0933 5.11328 8.49995C5.11328 6.90661 6.40661 5.61328 7.99995 5.61328C9.59328 5.61328 10.8866 6.90661 10.8866 8.49995C10.8866 10.0933 9.59328 11.3866 7.99995 11.3866ZM7.99995 6.61328C6.95995 6.61328 6.11328 7.45995 6.11328 8.49995C6.11328 9.53995 6.95995 10.3866 7.99995 10.3866C9.03995 10.3866 9.88661 9.53995 9.88661 8.49995C9.88661 7.45995 9.03995 6.61328 7.99995 6.61328Z" fill="#4B5563"/>
<path d="M7.99997 14.5134C5.4933 14.5134 3.12664 13.0467 1.49997 10.5C0.793304 9.40003 0.793304 7.60669 1.49997 6.50003C3.1333 3.95336 5.49997 2.48669 7.99997 2.48669C10.5 2.48669 12.8666 3.95336 14.4933 6.50003C15.2 7.60003 15.2 9.39336 14.4933 10.5C12.8666 13.0467 10.5 14.5134 7.99997 14.5134ZM7.99997 3.48669C5.84664 3.48669 3.78664 4.78003 2.34664 7.04003C1.84664 7.82003 1.84664 9.18003 2.34664 9.96003C3.78664 12.22 5.84664 13.5134 7.99997 13.5134C10.1533 13.5134 12.2133 12.22 13.6533 9.96003C14.1533 9.18003 14.1533 7.82003 13.6533 7.04003C12.2133 4.78003 10.1533 3.48669 7.99997 3.48669Z" fill="#4B5563"/>
</svg>
