<svg width="24" height="25" viewBox="0 0 24 25" fill="none" xmlns="http://www.w3.org/2000/svg">
<path d="M12.01 23.2399C11.38 23.2399 10.76 23.0299 10.27 22.6099L8.68999 21.2599C8.52999 21.1199 8.13 20.9799 7.92 20.9799H6.17C4.69 20.9799 3.49 19.7799 3.49 18.2999V16.5899C3.49 16.3799 3.35 15.9799 3.22 15.8299L1.86 14.2299C1.04 13.2599 1.04 11.7399 1.86 10.7599L3.22 9.15995C3.35 9.00995 3.49 8.60995 3.49 8.39995V6.69995C3.49 5.21995 4.69 4.01995 6.17 4.01995H7.9C8.11 4.01995 8.5 3.86995 8.67 3.72995L10.25 2.37995C11.23 1.54995 12.76 1.54995 13.74 2.37995L15.32 3.72995C15.48 3.86995 15.89 4.00995 16.1 4.00995H17.8C19.28 4.00995 20.48 5.20995 20.48 6.68995V8.38995C20.48 8.59995 20.63 8.98995 20.77 9.15995L22.12 10.7399C22.96 11.7299 22.95 13.2599 22.12 14.2299L20.77 15.8099C20.63 15.9799 20.49 16.3699 20.49 16.5799V18.2799C20.49 19.7599 19.29 20.9599 17.81 20.9599H16.11C15.9 20.9599 15.51 21.1099 15.33 21.2499L13.75 22.5999C13.26 23.0299 12.63 23.2399 12.01 23.2399ZM6.17 5.51995C5.52 5.51995 4.98999 6.04995 4.98999 6.69995V8.39995C4.98999 8.96995 4.73 9.68995 4.36 10.1299L3 11.7299C2.66 12.1399 2.66 12.8599 3 13.2599L4.34999 14.8499C4.70999 15.2599 4.98 16.0099 4.98 16.5799V18.2899C4.98 18.9399 5.50999 19.4699 6.16 19.4699H7.9C8.46 19.4699 9.2 19.7399 9.64 20.1099L11.23 21.4699C11.64 21.8199 12.36 21.8199 12.77 21.4699L14.35 20.1199C14.8 19.7399 15.53 19.4799 16.09 19.4799H17.79C18.44 19.4799 18.97 18.9499 18.97 18.2999V16.5999C18.97 16.0399 19.24 15.3099 19.61 14.8599L20.97 13.2699C21.32 12.8599 21.32 12.1399 20.97 11.7299L19.62 10.1499C19.24 9.69995 18.98 8.96995 18.98 8.40995V6.69995C18.98 6.04995 18.45 5.51995 17.8 5.51995H16.1C15.53 5.51995 14.79 5.24995 14.35 4.87995L12.76 3.51995C12.35 3.16995 11.64 3.16995 11.22 3.51995L9.64999 4.87995C9.2 5.24995 8.47 5.51995 7.9 5.51995H6.17Z" fill="#121A26"/>
<path d="M12 17.37C11.45 17.37 11 16.92 11 16.37C11 15.82 11.44 15.37 12 15.37C12.55 15.37 13 15.82 13 16.37C13 16.92 12.56 17.37 12 17.37Z" fill="#121A26"/>
<path d="M12 14.22C11.59 14.22 11.25 13.88 11.25 13.47V8.63C11.25 8.22 11.59 7.88 12 7.88C12.41 7.88 12.75 8.22 12.75 8.63V13.46C12.75 13.88 12.42 14.22 12 14.22Z" fill="#121A26"/>
</svg>
