<svg width="16" height="17" viewBox="0 0 16 17" fill="none" xmlns="http://www.w3.org/2000/svg">
<path d="M8.67347 15.5001C8.27347 15.5001 7.65348 15.3067 7.06015 14.3334L5.88681 12.4334C5.77347 12.2467 5.4268 12.0667 5.21347 12.0801L2.98678 12.1934C1.65345 12.2601 1.18682 11.7067 1.02015 11.3734C0.853482 11.0401 0.706786 10.3267 1.57345 9.3134L2.89348 7.78007C3.02681 7.62007 3.10013 7.27338 3.04013 7.07338L2.36679 4.92006C2.02679 3.84006 2.40679 3.26007 2.66012 3.00673C2.91346 2.7534 3.50013 2.38672 4.58013 2.74672L6.5468 3.39339C6.7268 3.45339 7.06013 3.40006 7.21347 3.2934L9.26681 1.8134C10.2068 1.1334 10.8868 1.3134 11.2001 1.48006C11.5135 1.64673 12.0468 2.10007 12.0268 3.26007L11.9801 5.78672C11.9734 5.97339 12.1268 6.28006 12.2734 6.39339L13.9268 7.64673C14.8268 8.3334 14.8601 9.02006 14.8001 9.37339C14.7401 9.72673 14.4735 10.3667 13.3935 10.7001L11.2401 11.3734C11.0401 11.4334 10.7935 11.6934 10.7401 11.8934L10.2268 13.8534C9.88681 15.1401 9.22014 15.4267 8.84681 15.4801C8.80014 15.4934 8.74014 15.5001 8.67347 15.5001ZM5.23345 11.0801C5.80678 11.0801 6.44011 11.4267 6.73345 11.9067L7.90679 13.8067C8.24012 14.3534 8.54012 14.5201 8.70012 14.4934C8.85345 14.4734 9.09347 14.2201 9.26014 13.6067L9.77344 11.6467C9.91344 11.1134 10.4134 10.5867 10.9401 10.4267L13.0935 9.7534C13.5068 9.62673 13.7734 9.42006 13.8134 9.20673C13.8534 8.99339 13.6668 8.7134 13.3201 8.44674L11.6668 7.1934C11.2601 6.88673 10.9668 6.27339 10.9735 5.76672L11.0201 3.24005C11.0268 2.79338 10.9201 2.46007 10.7268 2.36007C10.5335 2.26007 10.2068 2.36006 9.84013 2.62006L7.78679 4.10006C7.38012 4.39339 6.70681 4.50007 6.22014 4.34007L4.25347 3.6934C3.84013 3.56007 3.50682 3.56672 3.35348 3.72005C3.20015 3.87339 3.18678 4.20672 3.31344 4.62006L3.98678 6.7734C4.15345 7.30006 4.00678 8.0134 3.64678 8.42674L2.32679 9.96006C1.90679 10.4467 1.84013 10.7867 1.91346 10.9267C1.98013 11.0667 2.30015 11.2201 2.93348 11.1867L5.16012 11.0734C5.18679 11.0801 5.21345 11.0801 5.23345 11.0801Z" fill="#4B5563"/>
<path d="M14.6066 15.6666C14.4799 15.6666 14.3533 15.62 14.2533 15.52L12.2333 13.5C12.0399 13.3066 12.0399 12.9866 12.2333 12.7933C12.4266 12.6 12.7466 12.6 12.9399 12.7933L14.9599 14.8133C15.1533 15.0066 15.1533 15.3266 14.9599 15.52C14.8599 15.62 14.7333 15.6666 14.6066 15.6666Z" fill="#4B5563"/>
</svg>
